# xmcd CD database file
#
# Track frame offsets:
#	150
#	28422
#	67207
#	81522
#	86547
#	128570
#	158932
#	187772
#	205922
#	222352
#
# Disc length: 3016 seconds
#
# Revision: 0
# Processed by: cddbd v1.5.1PL2 Copyright (c) Steve Scherf et al.
# Submitted via: CDex 1.51
#
DISCID=8f0bc60a
DTITLE=John Ellis Ensemble - San Carlos
DYEAR=2002
DGENRE=Jazz
TTITLE0=Sana, Sana
TTITLE1=Cosmic Soup
TTITLE2=Escuintla
TTITLE3=Flap Jacket
TTITLE4=D.C.
TTITLE5=Sana Manana
TTITLE6=Sana De La Noche
TTITLE7=Path of Hope
TTITLE8=Thumbalina
TTITLE9=The Whistler
EXTD=YEAR: 2002
EXTT0=
EXTT1=
EXTT2=
EXTT3=
EXTT4=
EXTT5=
EXTT6=
EXTT7=
EXTT8=
EXTT9=
PLAYORDER=
